<?xml version="1.0" standalone="no"?><!-- Generator: Gravit.io --><svg xmlns="http://www.w3.org/2000/svg" xmlns:xlink="http://www.w3.org/1999/xlink" style="isolation:isolate" viewBox="0 523 1280 277" width="1280" height="277"><g id="cloud"><path d=" M 1030.546 800 C 1007.057 773.97 993 740.933 993 705 C 993 621.109 1069.623 553 1164 553 C 1208.75 553 1249.509 568.313 1280 593.361 L 1280 800 L 1030.546 800 Z " fill="rgb(154,186,225)"/><path d=" M 1017.266 800 C 1061.807 772.55 1091 726.781 1091 675 C 1091 591.109 1014.377 523 920 523 C 825.623 523 749 591.109 749 675 C 749 726.781 778.193 772.55 822.734 800 L 1017.266 800 Z " fill="rgb(154,186,225)"/><path d=" M 830.454 800 C 853.943 773.97 868 740.933 868 705 C 868 621.109 791.377 553 697 553 C 602.623 553 526 621.109 526 705 C 526 740.933 540.057 773.97 563.546 800 L 830.454 800 Z " fill="rgb(154,186,225)"/><path d=" M 595.609 800 C 608.616 778.565 616 754.043 616 728 C 616 644.109 539.377 576 445 576 C 350.623 576 274 644.109 274 728 C 274 754.043 281.384 778.565 294.391 800 L 595.609 800 Z " fill="rgb(154,186,225)"/><path d=" M 399.609 800 C 412.616 778.565 420 754.043 420 728 C 420 644.109 343.377 576 249 576 C 154.623 576 78 644.109 78 728 C 78 754.043 85.384 778.565 98.391 800 L 399.609 800 Z " fill="rgb(154,186,225)"/><path d=" M 0 574.773 C 30.545 549.481 71.504 534 116.5 534 C 210.877 534 287.5 602.109 287.5 686 C 287.5 731.378 265.081 772.139 229.559 800 L 3.441 800 C 2.28 799.089 1.133 798.165 0 797.227 L 0 574.773 Z " fill="rgb(154,186,225)"/></g></svg>